<svg width="128" height="114" viewBox="0 0 128 114" fill="none" xmlns="http://www.w3.org/2000/svg">
<path d="M19.128 69L39.608 24.2H44.28L64.76 69H59.768L40.952 26.952H42.872L24.056 69H19.128ZM27.192 57.032L28.6 53.192H54.648L56.056 57.032H27.192Z" fill="white"/>
<path d="M82.944 86.384C79.5307 86.384 76.3733 85.8293 73.472 84.72C70.6133 83.568 68.1173 81.968 65.984 79.92C63.8933 77.872 62.2507 75.4613 61.056 72.688C59.904 69.9147 59.328 66.8853 59.328 63.6C59.328 60.3147 59.904 57.2853 61.056 54.512C62.2507 51.7387 63.9147 49.328 66.048 47.28C68.1813 45.232 70.6773 43.6533 73.536 42.544C76.4373 41.392 79.5947 40.816 83.008 40.816C86.4213 40.816 89.536 41.3493 92.352 42.416C95.2107 43.4827 97.6427 45.104 99.648 47.28L96.704 50.288C94.8267 48.4107 92.7573 47.0667 90.496 46.256C88.2347 45.4453 85.8027 45.04 83.2 45.04C80.4267 45.04 77.8667 45.5093 75.52 46.448C73.216 47.344 71.1893 48.6453 69.44 50.352C67.7333 52.016 66.3893 53.9787 65.408 56.24C64.4693 58.4587 64 60.912 64 63.6C64 66.2453 64.4693 68.6987 65.408 70.96C66.3893 73.2213 67.7333 75.2053 69.44 76.912C71.1893 78.576 73.216 79.8773 75.52 80.816C77.8667 81.712 80.4053 82.16 83.136 82.16C85.696 82.16 88.1067 81.776 90.368 81.008C92.672 80.24 94.784 78.9387 96.704 77.104L99.392 80.688C97.2587 82.5653 94.7627 83.9947 91.904 84.976C89.0453 85.9147 86.0587 86.384 82.944 86.384ZM94.848 80.112V63.6H99.392V80.688L94.848 80.112Z" fill="white"/>
<path d="M95.7917 14.25H25.2083C19.6395 14.25 15.125 18.5033 15.125 23.75V90.25C15.125 95.4967 19.6395 99.75 25.2083 99.75H95.7917C101.361 99.75 105.875 95.4967 105.875 90.25V23.75C105.875 18.5033 101.361 14.25 95.7917 14.25Z" stroke="white" stroke-width="4" stroke-linecap="round" stroke-linejoin="round"/>
<line x1="42" y1="82" x2="42" y2="101" stroke="white" stroke-width="2"/>
<line x1="107" y1="30" x2="77" y2="30" stroke="white" stroke-width="2"/>
<circle cx="74" cy="30" r="2.5" stroke="white"/>
<circle cx="42" cy="79" r="2.5" stroke="white"/>
</svg>
